<?xml version="1.0" standalone="no"?>
<!DOCTYPE svg PUBLIC "-//W3C//DTD SVG 20010904//EN"
 "http://www.w3.org/TR/2001/REC-SVG-20010904/DTD/svg10.dtd">
<svg version="1.0" xmlns="http://www.w3.org/2000/svg"
 width="2100.000000pt" height="2100.000000pt" viewBox="0 0 2100.000000 2100.000000"
 preserveAspectRatio="xMidYMid meet">
<metadata>
Created by potrace 1.14, written by Peter Selinger 2001-2017
</metadata>
<g transform="translate(0.000000,2100.000000) scale(0.100000,-0.100000)"
fill="#000000" stroke="none">
<path d="M8281 13793 c-7 -12 -11 -13 -11 -5 0 10 -4 9 -16 -3 -14 -13 -19
-14 -26 -3 -7 10 -11 9 -19 -6 -9 -15 -13 -16 -20 -5 -5 9 -9 10 -9 2 0 -6 -8
-10 -17 -9 -10 2 -21 -1 -24 -5 -3 -5 -18 -10 -35 -11 -16 -1 -34 -6 -41 -11
-7 -5 -17 -6 -23 -2 -5 3 -10 1 -10 -5 0 -6 -4 -9 -9 -5 -5 3 -13 0 -17 -6 -4
-8 -9 -7 -15 2 -6 10 -9 10 -9 2 0 -6 -9 -10 -20 -8 -12 2 -18 0 -14 -6 3 -6
-2 -10 -12 -9 -31 4 -45 0 -40 -8 3 -4 -8 -7 -24 -6 -16 1 -34 -4 -41 -12 -8
-10 -16 -11 -30 -3 -15 8 -19 6 -19 -8 0 -14 -2 -15 -9 -4 -6 9 -11 10 -15 2
-4 -6 -20 -9 -36 -7 -16 2 -27 -1 -24 -5 3 -5 -2 -10 -10 -10 -16 -1 -28 -4
-43 -9 -5 -1 -12 -2 -17 -1 -4 1 -14 -3 -20 -8 -7 -6 -22 -9 -34 -6 -12 2 -22
0 -22 -6 0 -5 -11 -7 -25 -5 -14 3 -23 1 -20 -5 4 -5 -1 -10 -9 -10 -29 -3
-34 -4 -42 -11 -4 -5 -12 -8 -18 -8 -6 0 -4 5 4 10 8 5 10 10 5 10 -6 0 -15
-4 -20 -9 -9 -9 -53 -21 -82 -23 -7 -1 -13 -5 -13 -9 0 -5 -6 -6 -14 -3 -8 3
-17 0 -21 -5 -3 -6 -11 -8 -17 -5 -6 4 -14 0 -19 -7 -7 -11 -9 -11 -9 -1 0 7
-5 10 -10 7 -6 -4 -7 -12 -3 -18 4 -7 0 -6 -10 2 -11 9 -17 10 -17 2 0 -6 -5
-11 -11 -11 -5 0 -7 6 -4 13 4 6 -1 3 -9 -7 -12 -15 -16 -16 -17 -5 0 8 -4 6
-9 -6 -5 -11 -9 -14 -9 -6 -1 11 -4 11 -16 1 -9 -7 -18 -10 -22 -6 -3 3 -17
-1 -30 -9 -15 -10 -23 -12 -23 -4 0 8 -4 9 -13 0 -8 -6 -17 -8 -20 -4 -4 3 -7
1 -7 -4 0 -6 -12 -10 -26 -8 -14 1 -32 -4 -40 -12 -11 -11 -14 -12 -14 -1 0
10 -2 10 -9 -1 -5 -7 -14 -10 -20 -7 -6 4 -11 3 -11 -3 0 -6 -7 -8 -15 -5 -8
4 -15 1 -15 -6 0 -6 -4 -9 -9 -5 -5 3 -13 1 -16 -5 -5 -8 -11 -7 -21 1 -11 9
-15 8 -20 -5 -5 -13 -9 -14 -20 -5 -9 7 -14 8 -14 1 0 -5 -7 -13 -16 -16 -10
-4 -13 -2 -8 7 6 8 3 8 -9 -1 -9 -8 -20 -11 -26 -8 -5 3 -11 -1 -15 -9 -3 -8
-11 -15 -18 -15 -9 0 -8 3 2 10 9 6 10 10 3 10 -6 0 -15 -5 -18 -10 -4 -6 -11
-8 -16 -5 -5 4 -9 2 -9 -4 0 -6 -7 -8 -15 -5 -8 4 -22 1 -30 -6 -12 -10 -15
-10 -15 1 0 11 -2 11 -9 1 -4 -7 -18 -14 -29 -15 -12 -1 -22 -6 -22 -12 0 -5
-4 -4 -9 3 -6 11 -10 10 -15 -3 -5 -13 -9 -15 -20 -6 -10 9 -15 8 -20 -4 -5
-13 -10 -14 -27 -4 -15 8 -19 8 -15 0 5 -7 -4 -11 -23 -11 -17 0 -31 -4 -31
-9 0 -6 -9 -8 -20 -6 -11 2 -20 0 -20 -5 0 -5 -7 -7 -15 -4 -8 4 -17 -1 -21
-10 -5 -14 -7 -14 -22 0 -15 15 -17 15 -33 -5 -12 -14 -19 -17 -21 -9 -3 9 -9
8 -22 -5 -19 -19 -31 -23 -21 -7 3 6 1 10 -4 10 -6 0 -11 -7 -11 -16 0 -13 -3
-14 -14 -5 -10 9 -16 9 -21 1 -4 -6 -13 -9 -21 -6 -8 3 -14 1 -14 -5 0 -6 -4
-8 -9 -5 -5 4 -12 0 -14 -6 -4 -10 -6 -9 -6 1 -1 11 -4 11 -16 1 -9 -7 -18
-10 -22 -7 -3 4 -12 -1 -20 -11 -8 -9 -11 -11 -7 -3 6 11 3 13 -12 7 -10 -5
-25 -9 -31 -9 -7 0 -13 -7 -14 -16 0 -11 -2 -12 -6 -3 -4 10 -8 10 -21 0 -13
-11 -14 -11 -7 2 8 13 6 13 -8 1 -9 -7 -24 -11 -32 -7 -8 3 -15 1 -15 -5 0 -6
-4 -7 -10 -4 -5 3 -10 2 -10 -4 0 -6 -7 -7 -17 -4 -11 5 -14 3 -8 -6 6 -10 3
-11 -14 -2 -14 8 -21 8 -21 1 0 -5 -3 -9 -7 -9 -26 4 -43 -2 -37 -13 6 -10 4
-10 -8 0 -13 10 -17 10 -22 -3 -4 -13 -10 -14 -26 -5 -16 8 -22 8 -25 -3 -3
-7 -18 -12 -33 -12 -15 1 -32 -2 -38 -7 -6 -4 -26 -10 -45 -12 -19 -2 -33 -8
-32 -13 2 -11 -27 -11 -44 0 -6 4 -15 2 -19 -4 -5 -8 -3 -9 6 -4 9 5 11 4 6
-3 -4 -7 -18 -9 -32 -6 -16 4 -24 2 -24 -7 0 -7 -3 -9 -6 -6 -4 3 -16 1 -28
-5 -11 -7 -31 -11 -43 -9 -11 1 -24 -3 -28 -8 -3 -6 -11 -11 -16 -11 -6 0 -7
5 -4 11 4 6 -2 5 -13 -2 -12 -7 -18 -17 -15 -22 3 -5 -4 -4 -16 2 -17 10 -22
9 -27 -4 -5 -13 -9 -13 -22 -3 -10 9 -13 9 -9 1 7 -11 -28 -30 -46 -25 -5 1
-5 -3 -1 -9 5 -9 2 -10 -9 -6 -12 4 -17 1 -17 -9 0 -10 -6 -14 -15 -10 -11 4
-19 -3 -25 -19 -5 -14 -12 -25 -15 -25 -4 0 -3 4 0 10 3 6 -1 7 -10 4 -12 -5
-13 -9 -4 -21 10 -11 9 -13 -2 -11 -8 2 -18 8 -22 13 -5 6 -7 1 -4 -12 4 -16
1 -21 -13 -18 -14 3 -17 -2 -13 -18 5 -22 5 -22 -10 -2 -16 19 -18 19 -21 -7
-1 -7 -9 -12 -18 -12 -11 1 -15 -5 -13 -18 2 -10 0 -16 -5 -13 -11 7 -41 -8
-43 -21 -1 -5 -5 -8 -9 -7 -8 3 -11 -10 -9 -37 0 -10 -1 -11 -5 -2 -3 6 -12
12 -20 12 -9 0 -12 -4 -9 -10 3 -5 0 -10 -7 -10 -8 0 -23 -7 -34 -15 -12 -10
-14 -14 -4 -12 8 2 12 2 7 0 -4 -3 -5 -8 -2 -13 3 -4 -4 -6 -15 -3 -12 3 -20
2 -19 -3 4 -21 -2 -26 -17 -14 -8 8 -14 9 -13 4 4 -23 -2 -45 -11 -39 -6 4 -7
11 -4 17 4 7 2 8 -4 4 -6 -4 -8 -14 -5 -23 4 -10 2 -14 -5 -9 -6 3 -14 1 -17
-4 -4 -6 -18 -15 -32 -21 -13 -5 -21 -13 -18 -19 6 -10 -6 -14 -35 -11 -13 2
-13 1 0 -8 13 -9 13 -12 1 -23 -10 -9 -12 -10 -7 -1 5 9 2 11 -8 7 -9 -3 -13
-11 -9 -17 4 -6 0 -8 -10 -4 -12 5 -17 1 -17 -13 0 -14 -5 -18 -17 -13 -12 5
-14 3 -8 -7 6 -10 4 -12 -10 -6 -15 5 -16 4 -5 -9 11 -13 10 -14 -2 -10 -9 4
-19 -3 -27 -17 -6 -13 -9 -15 -7 -6 4 12 1 15 -10 11 -8 -3 -13 -8 -10 -10 8
-8 -55 -64 -65 -58 -5 4 -9 2 -9 -4 0 -5 3 -11 8 -14 4 -2 1 -2 -7 0 -17 4
-53 -31 -43 -43 4 -5 -1 -2 -10 5 -16 12 -22 9 -20 -11 1 -3 -6 -12 -15 -20
-9 -7 -14 -8 -10 -2 3 6 0 11 -7 11 -7 0 -13 -7 -12 -16 1 -9 -6 -16 -14 -16
-8 0 -26 -9 -40 -19 -16 -11 -18 -16 -7 -12 11 3 16 2 12 -4 -3 -6 -17 -10
-30 -10 -13 0 -27 -4 -30 -10 -4 -6 1 -7 12 -4 13 5 12 2 -5 -10 -12 -10 -27
-14 -34 -10 -7 4 -8 3 -4 -4 4 -7 1 -12 -8 -12 -9 0 -15 -3 -15 -7 3 -18 -1
-33 -9 -30 -9 3 -52 -40 -46 -46 3 -3 -3 -4 -13 -3 -11 0 -18 -5 -17 -16 1
-10 -4 -14 -12 -11 -8 3 -14 0 -14 -7 0 -6 -5 -8 -12 -4 -8 5 -9 2 -5 -10 4
-9 3 -15 -2 -11 -5 3 -16 -1 -24 -9 -8 -8 -18 -12 -22 -8 -5 4 -6 0 -2 -10 4
-12 0 -15 -18 -14 -18 3 -22 -1 -20 -19 2 -18 -2 -22 -21 -20 -17 1 -21 -2
-16 -14 5 -14 4 -14 -11 -2 -15 12 -17 12 -12 -1 3 -8 -2 -21 -12 -29 -16 -12
-17 -12 -8 1 6 9 3 8 -7 -2 -9 -10 -22 -18 -28 -18 -9 0 -10 -3 -1 -14 9 -11
7 -12 -13 -9 -13 3 -27 -1 -31 -8 -5 -7 -4 -10 3 -5 6 3 14 1 18 -6 4 -7 3
-10 -1 -5 -5 4 -22 -5 -39 -20 -17 -16 -23 -19 -13 -7 26 32 20 39 -8 8 -13
-14 -22 -30 -19 -35 3 -5 -2 -6 -11 -3 -11 5 -15 2 -13 -7 2 -8 -1 -14 -7 -14
-5 0 -8 7 -6 15 1 8 -7 3 -19 -12 -12 -15 -19 -32 -15 -38 3 -5 0 -7 -8 -4 -8
3 -18 0 -22 -5 -3 -6 -11 -9 -16 -6 -5 3 -6 -1 -3 -9 4 -12 0 -16 -16 -16 -11
0 -19 -3 -17 -7 3 -5 -1 -13 -8 -20 -11 -10 -15 -10 -18 0 -4 9 -6 9 -6 -1 -1
-7 -5 -11 -10 -8 -5 3 -8 -2 -7 -12 1 -11 -5 -16 -16 -14 -13 2 -18 -4 -19
-20 0 -13 -3 -18 -5 -11 -7 17 -56 -27 -49 -45 2 -7 1 -10 -4 -7 -5 3 -13 0
-16 -6 -4 -5 -13 -8 -20 -5 -7 2 -23 -6 -35 -19 -13 -14 -27 -22 -33 -18 -6 3
-7 1 -3 -6 10 -16 -14 -43 -32 -36 -9 3 -12 0 -9 -9 3 -8 0 -17 -8 -20 -10 -3
-12 0 -9 12 3 9 -2 4 -11 -11 -10 -17 -22 -26 -30 -23 -8 3 -17 -3 -20 -15 -6
-17 -17 -23 -37 -20 -4 0 -5 -5 -2 -13 3 -8 0 -17 -7 -22 -8 -5 -10 -3 -5 7 4
8 1 6 -7 -3 -8 -10 -17 -15 -21 -11 -4 4 -9 -3 -13 -16 -4 -14 -11 -20 -21
-16 -10 4 -13 0 -10 -13 3 -11 0 -19 -7 -19 -7 0 -11 7 -8 16 2 9 -1 7 -8 -4
-15 -24 -30 -35 -41 -29 -4 3 -5 -2 -2 -11 4 -10 2 -15 -7 -13 -8 2 -13 -5
-13 -15 1 -13 -2 -15 -10 -8 -8 7 -16 4 -24 -10 -7 -11 -18 -17 -24 -13 -6 4
-8 3 -5 -3 9 -14 -29 -47 -42 -38 -10 6 -16 -8 -12 -29 1 -5 -6 -3 -15 5 -10
8 -15 10 -12 4 3 -5 -4 -19 -15 -30 -11 -11 -17 -14 -13 -7 4 6 2 12 -3 12 -6
0 -11 -9 -11 -20 0 -12 -5 -17 -14 -14 -8 3 -17 0 -22 -7 -4 -8 -3 -10 4 -5 7
4 12 2 12 -3 0 -6 -8 -11 -19 -11 -24 0 -45 -25 -35 -42 6 -10 5 -10 -7 -2
-11 9 -19 7 -34 -8 -20 -19 -20 -19 0 -13 20 6 20 6 0 -6 -11 -8 -23 -14 -27
-15 -5 -1 -11 -2 -15 -3 -5 -1 -1 -6 7 -11 13 -8 13 -10 -2 -10 -12 0 -15 -5
-11 -17 4 -10 2 -14 -5 -9 -16 10 -6 -34 12 -52 9 -9 31 -14 58 -13 23 2 52 2
63 2 11 0 23 5 27 12 6 9 8 9 8 0 0 -7 5 -13 11 -13 5 0 7 5 4 10 -5 8 31 15
58 11 4 0 7 4 7 10 0 5 5 7 10 4 6 -3 10 -1 10 5 0 6 5 8 10 5 6 -4 18 -1 27
7 10 7 14 8 10 1 -4 -7 14 -4 44 8 29 10 56 16 60 13 5 -3 9 0 9 6 0 7 6 10
13 7 6 -2 18 3 25 12 11 14 11 14 6 -4 -5 -17 -4 -18 8 -5 14 16 24 19 80 27
21 3 35 10 32 15 -3 5 6 6 22 2 19 -5 25 -4 20 4 -4 8 -2 10 7 6 8 -3 18 0 22
6 6 9 10 9 16 -1 7 -11 9 -11 9 -1 0 7 4 10 10 7 5 -3 10 -2 10 3 0 5 6 9 13
10 12 1 47 9 57 12 3 1 9 2 14 1 4 -1 13 2 20 7 6 5 21 8 33 7 13 -1 19 3 16
8 -4 6 0 8 10 4 8 -3 21 1 28 9 8 10 15 12 23 4 13 -13 29 -13 21 0 -6 10 3
13 38 13 9 0 17 4 17 9 0 6 7 8 15 5 8 -4 17 -2 20 3 4 6 17 10 30 10 13 0 27
5 31 11 4 8 9 7 15 -2 7 -11 9 -11 9 -1 0 7 4 11 9 8 5 -3 14 1 21 9 10 12 16
13 26 4 11 -9 14 -8 14 1 0 8 12 10 36 7 35 -5 54 -20 53 -42 0 -5 -3 -4 -6 3
-2 6 -10 9 -15 6 -6 -4 -8 -2 -4 4 3 6 3 13 -1 15 -5 3 -9 -7 -9 -23 -1 -19 3
-27 11 -24 6 3 18 -3 25 -13 12 -15 12 -16 0 -5 -8 6 -18 12 -23 12 -4 0 -5
-6 0 -12 4 -8 -4 -6 -18 4 -20 13 -26 13 -26 3 0 -8 5 -13 10 -12 5 1 11 -6
12 -16 3 -13 -1 -17 -12 -13 -13 5 -14 4 -4 -8 9 -11 9 -15 -1 -19 -9 -4 -10
-6 -1 -6 13 -1 36 33 28 41 -3 3 1 5 8 5 8 0 14 -6 14 -13 0 -7 -4 -11 -8 -8
-4 2 -10 -5 -14 -16 -5 -17 -25 -25 -55 -22 -3 0 -7 -11 -8 -24 -1 -15 2 -23
8 -19 6 4 8 10 5 15 -3 5 -1 12 5 15 7 4 10 -3 7 -21 -4 -28 -31 -42 -44 -22
-4 7 -1 8 8 3 11 -7 12 -6 3 6 -6 8 -10 22 -9 32 2 9 -1 15 -5 12 -5 -3 -7
-15 -5 -26 3 -15 0 -19 -10 -15 -8 3 -17 1 -20 -5 -4 -5 -3 -9 2 -8 19 3 34
-2 28 -10 -3 -5 -1 -12 5 -16 7 -4 7 -12 0 -26 -6 -10 -7 -19 -3 -20 4 0 -1
-5 -12 -10 -15 -7 -12 -8 13 -3 25 4 32 2 33 -10 3 -29 4 -34 12 -42 4 -4 7
-12 7 -18 0 -6 -4 -5 -9 2 -6 11 -11 10 -25 -3 -9 -9 -14 -20 -11 -25 3 -5 1
-11 -5 -15 -5 -3 -10 -12 -10 -18 0 -7 5 -4 11 6 5 9 15 17 22 17 9 0 9 -2 1
-8 -6 -4 -14 -17 -18 -29 -6 -18 -4 -22 7 -17 8 3 18 1 21 -4 3 -5 -2 -9 -11
-8 -13 1 -18 -7 -18 -29 0 -26 4 -30 27 -30 15 -1 31 -5 35 -10 4 -4 3 -6 -2
-2 -6 3 -17 1 -25 -4 -11 -7 -8 -8 10 -5 17 2 24 9 22 21 -2 10 1 14 7 10 6
-3 11 -1 11 5 0 6 5 8 10 5 7 -4 7 -12 2 -18 -10 -14 -10 -27 1 -44 11 -17 -1
-35 -16 -26 -7 4 -6 0 2 -10 9 -12 10 -21 4 -29 -6 -7 -9 -23 -8 -35 1 -12 -2
-20 -7 -17 -8 5 -12 -9 -9 -33 1 -7 -2 -13 -7 -13 -5 0 -8 -18 -8 -39 1 -22
-3 -37 -8 -34 -5 4 -6 -5 -3 -19 4 -14 4 -28 0 -32 -4 -4 -8 -14 -9 -22 -1 -9
-6 -23 -10 -32 -11 -27 -12 -52 -1 -45 7 4 7 -1 2 -13 -4 -10 -8 -43 -8 -71
-1 -30 -6 -53 -12 -53 -5 0 -3 -5 5 -10 13 -9 13 -10 0 -10 -13 0 -13 -1 0
-10 8 -5 10 -10 4 -10 -7 0 -10 -13 -8 -32 2 -18 -1 -35 -8 -40 -7 -4 -8 -8
-3 -8 13 0 13 -60 0 -80 -5 -9 -4 -15 4 -18 9 -3 9 -8 -1 -20 -11 -13 -11 -15
2 -7 12 6 13 5 3 -5 -8 -9 -9 -19 -2 -32 7 -14 6 -20 -6 -24 -12 -5 -13 -9 -4
-20 6 -8 7 -14 2 -14 -5 0 -10 -6 -11 -12 0 -7 -3 -23 -6 -36 -3 -13 -1 -20 5
-17 5 4 9 2 9 -4 0 -5 -4 -11 -10 -13 -5 -1 -10 -18 -12 -35 -1 -18 -7 -33
-13 -33 -6 0 -7 -3 0 -8 15 -10 18 -35 4 -26 -9 5 -10 1 -7 -14 5 -16 2 -22
-10 -22 -10 0 -13 -3 -7 -8 13 -8 13 -22 1 -41 -7 -11 -6 -12 5 -6 12 8 12 6
0 -8 -7 -9 -11 -24 -7 -32 3 -9 2 -14 -3 -11 -14 9 -21 -20 -8 -33 9 -10 9
-12 -3 -9 -8 2 -14 -3 -12 -11 1 -7 -3 -20 -10 -29 -11 -13 -11 -15 2 -8 8 4
6 0 -4 -8 -15 -12 -16 -16 -5 -16 8 0 10 -3 4 -8 -8 -6 -11 -97 -4 -137 2 -6
14 -12 28 -13 14 -1 28 -8 33 -15 4 -6 8 -8 8 -3 0 5 8 2 17 -5 15 -12 16 -12
9 6 -6 17 -3 16 20 -5 15 -14 24 -19 20 -12 -4 7 -1 12 8 12 9 0 16 -5 16 -12
0 -9 3 -9 11 -1 8 8 18 7 37 -3 18 -9 28 -10 33 -3 4 6 9 7 12 2 3 -5 18 -8
34 -7 15 1 37 -3 48 -9 18 -9 19 -9 6 6 -12 16 -11 16 23 2 25 -11 36 -12 36
-4 0 8 6 7 17 -2 11 -10 14 -10 9 -1 -4 6 -2 12 3 12 6 0 11 -6 11 -12 0 -9 4
-8 10 2 5 8 10 10 10 4 0 -16 60 -10 71 7 7 11 9 11 9 -4 0 -15 3 -16 20 -7
11 6 20 7 21 3 0 -4 4 1 9 12 8 19 9 19 9 1 1 -20 1 -20 17 0 15 19 16 19 10
-1 -6 -19 -5 -19 7 -3 8 10 17 15 20 11 4 -3 7 -1 7 6 0 7 4 10 9 7 10 -6 31
37 31 64 0 10 4 21 9 25 5 3 8 19 6 35 -3 22 -1 29 8 23 7 -4 7 0 -2 10 -9 12
-10 17 -2 17 7 0 10 4 7 9 -4 5 0 12 6 14 10 4 9 6 -1 6 -11 1 -11 4 0 18 12
15 12 16 -1 8 -12 -7 -13 -6 -3 7 7 8 10 18 6 21 -3 4 0 7 8 7 11 0 11 2 -1
10 -8 5 -10 10 -4 10 5 0 10 10 10 23 0 12 4 33 8 46 6 18 5 22 -5 15 -12 -6
-12 -5 0 9 11 14 11 20 1 32 -11 13 -10 14 2 10 12 -5 14 1 10 26 -4 25 -2 30
9 24 12 -7 12 -6 1 7 -10 13 -10 17 0 20 10 4 11 8 1 20 -7 8 -10 17 -8 20 3
3 8 15 10 28 3 17 1 21 -13 16 -13 -5 -12 -2 3 9 17 14 18 17 5 25 -13 9 -13
10 0 10 12 0 13 2 1 9 -11 7 -11 9 0 14 12 4 11 7 -1 16 -13 9 -12 11 4 11 20
0 20 0 0 16 -10 8 -13 13 -6 9 16 -8 16 7 0 24 -10 11 -10 13 0 7 7 -4 12 -1
12 8 0 9 -6 16 -12 16 -8 0 -9 3 -3 8 15 11 17 32 2 32 -8 0 -7 4 3 11 12 8
12 12 2 16 -10 4 -10 8 -1 19 9 11 8 14 -2 14 -11 0 -11 2 1 10 12 8 12 10 1
10 -11 0 -11 3 0 17 12 14 12 16 0 8 -11 -6 -13 -3 -9 13 3 12 1 23 -6 26 -8
3 -7 5 1 5 9 1 10 8 3 25 -5 13 -6 33 -3 45 3 12 1 21 -4 21 -5 0 -9 17 -10
38 0 46 -5 65 -18 74 -6 5 -5 8 2 8 7 0 10 7 7 15 -4 8 -10 13 -14 10 -5 -3
-6 5 -2 17 4 15 2 19 -7 13 -10 -6 -11 -3 -2 13 8 14 8 23 1 27 -6 4 -10 15
-8 24 2 10 -4 26 -12 36 -13 17 -13 18 0 11 8 -4 6 0 -4 8 -15 12 -16 16 -5
17 8 0 6 4 -6 9 -11 5 -15 9 -9 9 16 1 11 34 -10 66 -10 15 -13 24 -7 21 6 -4
11 -2 11 3 0 6 -5 11 -12 11 -6 0 -3 7 8 15 13 11 14 13 3 9 -10 -3 -19 2 -23
12 -5 12 -2 15 11 10 17 -6 17 -5 1 7 -10 8 -19 34 -23 62 -3 27 -10 54 -15
60 -7 9 -5 17 7 26 11 9 14 10 9 2 -4 -7 -3 -13 3 -13 5 0 13 -9 16 -20 4 -11
10 -18 14 -15 5 2 6 -7 3 -21 -3 -16 1 -30 9 -35 22 -14 35 -10 14 4 -18 14
-13 38 8 36 9 0 9 -2 0 -6 -23 -9 -14 -25 10 -18 17 5 19 4 7 -4 -8 -6 -11
-11 -6 -11 5 0 1 -10 -10 -21 -19 -22 -19 -22 2 -11 16 8 26 8 40 -1 10 -7 33
-13 49 -12 26 0 30 4 30 26 -1 17 5 25 18 26 15 2 16 -1 7 -12 -7 -8 -10 -20
-7 -27 3 -7 6 -4 6 7 1 17 3 18 12 5 8 -12 9 -11 7 5 -2 15 2 19 17 17 16 -2
17 -1 5 7 -8 6 -11 11 -6 11 5 0 -1 12 -15 27 -13 14 -18 23 -11 19 6 -4 12
-2 12 3 0 6 5 11 11 11 8 0 9 -4 0 -13 -8 -11 -5 -16 14 -25 16 -7 26 -8 30
-1 4 5 3 9 -2 8 -19 -3 -33 2 -33 12 0 5 6 7 13 3 6 -4 4 2 -5 13 -23 25 -23
39 0 22 15 -13 16 -12 4 3 -15 19 -7 42 11 32 7 -3 2 3 -10 14 -12 11 -19 23
-15 27 4 5 2 5 -5 1 -6 -3 -10 -19 -8 -35 2 -16 -3 -37 -11 -47 -14 -18 -14
-18 -5 3 13 26 14 36 3 29 -5 -3 -9 1 -9 9 0 8 4 15 9 15 5 0 6 5 3 10 -5 8
-11 8 -19 1 -9 -8 -13 -7 -13 3 0 8 8 13 19 11 10 -2 18 0 18 6 0 8 -15 13
-32 10 -13 -2 -9 17 4 21 8 3 8 10 -4 26 -8 12 -18 19 -21 15 -4 -3 -7 -1 -7
5 0 15 17 16 25 2 4 -6 11 -7 17 -4 7 4 8 2 4 -4 -4 -7 -5 -16 -1 -22 7 -11
35 -2 35 12 0 6 -6 5 -15 -2 -17 -14 -21 -1 -5 18 6 6 7 10 4 7 -11 -7 -44 15
-44 30 0 7 -6 16 -12 18 -10 4 -10 6 0 6 6 1 12 6 12 12 0 6 -7 9 -15 6 -8 -4
-17 -2 -20 4 -4 5 -3 9 2 8 4 -1 15 -1 23 0 13 1 13 2 0 12 -13 9 -13 10 0 6
8 -2 16 -16 16 -33 1 -16 3 -31 4 -34 1 -3 2 -8 2 -11 -1 -3 5 -6 13 -6 8 0
11 5 7 11 -11 19 -11 40 0 54 6 7 7 12 2 11 -21 -4 -26 2 -13 19 12 15 12 16
-2 4 -14 -11 -16 -9 -17 13 0 13 4 23 8 20 3 -2 7 2 7 10 0 8 -4 12 -9 9 -4
-3 -8 0 -8 6 0 6 -5 8 -11 4 -8 -5 -8 -9 1 -14 8 -5 9 -10 2 -14 -15 -9 -21
16 -10 37 8 15 12 16 25 5 15 -12 15 -11 2 10 -8 12 -17 22 -22 22 -4 0 -5 -5
-1 -12 4 -7 3 -8 -4 -4 -15 9 -16 37 -1 33 22 -4 16 32 -8 48 -21 14 -23 19
-11 33 11 15 11 15 -3 5 -9 -7 -20 -9 -25 -5 -5 4 -1 -3 9 -14 16 -19 16 -22
2 -28 -10 -3 -14 -2 -10 5 4 5 2 16 -5 24 -9 11 -7 16 9 25 22 11 28 30 10 30
-5 0 -8 -4 -4 -9 5 -9 -20 -22 -39 -20 -5 0 -13 -5 -17 -13 -7 -10 -9 -10 -9
0 0 8 -5 10 -12 6 -7 -4 -10 -4 -6 1 4 4 3 17 -3 28 -8 14 -8 18 0 13 6 -4 11
-1 11 6 0 11 2 11 9 0 6 -10 10 -10 20 2 7 8 23 13 36 10 32 -6 73 -23 58 -23
-7 -1 -13 -5 -13 -11 0 -12 22 -9 32 5 4 6 6 -5 4 -23 -3 -24 0 -30 9 -22 9 7
11 2 10 -21 -1 -17 5 -38 14 -46 8 -9 15 -27 16 -40 0 -13 6 -28 14 -33 8 -5
16 -21 19 -37 2 -15 8 -31 14 -34 7 -4 5 -9 -3 -12 -10 -4 -9 -6 3 -6 11 -1
16 -8 13 -21 -2 -11 0 -20 5 -20 5 0 7 -7 4 -15 -5 -11 -2 -14 12 -9 15 6 17
4 7 -6 -10 -11 -9 -16 5 -27 9 -8 11 -12 5 -8 -7 3 -13 1 -13 -4 0 -6 6 -11
13 -11 8 0 7 -4 -3 -10 -13 -8 -12 -10 3 -10 12 0 17 -8 17 -26 0 -17 4 -23
13 -18 7 5 6 0 -3 -11 -8 -10 -10 -16 -4 -12 6 3 16 -5 23 -19 6 -15 7 -23 1
-19 -5 3 -10 1 -10 -4 0 -6 3 -11 8 -11 4 0 13 -9 20 -21 9 -13 9 -18 2 -14
-14 9 10 -36 25 -47 6 -4 6 -8 1 -8 -5 0 -2 -8 5 -17 9 -11 10 -14 2 -9 -9 5
-11 2 -7 -8 3 -8 12 -17 20 -20 8 -3 11 -12 8 -21 -7 -18 14 -75 28 -75 6 0 7
-7 4 -16 -3 -8 0 -25 6 -37 7 -12 11 -25 10 -29 -3 -12 35 -88 41 -82 4 4 5
-3 2 -14 -2 -11 3 -26 11 -32 7 -7 11 -16 8 -21 -3 -5 2 -9 11 -9 9 0 13 -4
10 -10 -3 -5 -2 -10 4 -10 5 0 13 -9 16 -20 3 -11 13 -20 21 -20 9 0 12 -5 8
-12 -6 -10 -4 -10 7 0 15 14 33 17 25 4 -3 -5 1 -9 9 -9 8 0 15 4 15 9 0 4 9
3 20 -4 17 -11 22 -10 29 1 7 11 9 11 14 0 4 -9 6 -10 6 -2 1 7 8 10 16 7 8
-4 15 -2 15 3 0 5 14 7 31 5 25 -4 30 -2 24 9 -7 12 -6 12 7 1 12 -9 18 -10
23 -2 4 6 14 10 23 8 10 -2 23 3 30 12 11 13 12 13 6 0 -7 -13 -5 -13 9 -1 9
7 17 10 17 6 0 -4 6 -3 13 4 10 8 17 7 27 -2 9 -8 11 -8 6 0 -7 12 29 29 53
24 7 -1 10 2 6 8 -3 7 0 8 9 5 9 -3 16 -1 16 6 0 6 5 8 10 5 6 -4 17 -1 25 5
8 6 19 9 25 5 5 -3 10 -1 10 4 0 6 5 11 11 11 5 0 7 -6 4 -12 -4 -7 0 -5 8 4
8 10 17 15 20 11 4 -3 7 -1 7 6 0 7 5 9 10 6 6 -3 10 -1 10 5 0 6 4 9 8 6 5
-3 21 2 37 10 15 8 30 12 33 10 2 -3 11 2 19 10 8 8 19 12 24 9 5 -4 9 -1 9 4
0 6 5 11 11 11 5 0 7 -6 3 -12 -5 -9 -3 -9 9 1 9 7 14 18 10 24 -3 6 -1 7 6 3
6 -4 19 -2 28 6 12 9 15 9 9 1 -4 -7 -3 -13 2 -13 5 0 14 10 20 23 6 12 11 16
11 10 1 -9 12 -6 37 8 20 11 39 18 41 15 9 -8 31 18 25 29 -3 6 1 4 10 -3 11
-9 17 -9 20 -2 2 6 12 13 23 14 11 2 19 9 17 17 -3 10 0 10 12 -1 11 -8 16 -9
16 -1 0 6 9 11 21 11 16 0 20 4 14 18 -5 13 -4 14 6 5 10 -10 15 -9 26 5 8 9
11 10 7 3 -4 -9 7 -4 26 9 19 13 30 18 26 9 -4 -7 0 -5 8 5 9 11 16 16 16 12
0 -5 6 -3 13 3 8 6 18 7 22 3 5 -4 6 0 2 9 -4 13 -1 16 14 12 11 -3 27 1 37
10 9 8 25 13 34 12 11 -2 15 2 11 13 -5 12 -1 14 15 10 12 -3 29 1 39 9 16 13
16 13 -7 3 -23 -10 -24 -10 -7 4 11 8 25 12 31 10 7 -3 18 2 25 10 7 8 19 12
26 10 8 -3 19 3 26 14 7 11 18 18 24 16 6 -3 21 5 33 16 12 11 22 18 22 14 0
-3 7 -1 15 6 8 7 15 9 15 4 0 -5 5 -1 11 9 5 9 19 17 30 17 11 0 22 7 25 15 4
8 10 12 15 9 5 -3 9 1 10 8 0 7 4 4 9 -7 7 -17 9 -17 9 -2 1 9 6 17 12 17 5 0
7 6 3 13 -5 7 0 6 11 -3 15 -12 17 -12 10 -1 -6 11 -4 13 8 8 9 -3 18 0 21 9
3 8 15 14 27 14 14 0 19 5 16 14 -4 10 0 12 15 8 16 -4 19 -2 13 9 -6 11 -5
12 6 2 16 -16 29 -17 29 -2 0 5 -6 7 -12 3 -9 -5 -8 -2 1 9 11 13 17 15 28 6
11 -10 12 -8 7 5 -4 9 -3 16 2 15 15 -3 44 12 39 21 -2 4 7 6 20 4 14 -1 28 3
32 8 4 7 1 8 -7 3 -9 -6 -11 -4 -6 4 5 7 14 10 22 7 17 -7 19 10 2 18 -7 2 -2
3 12 2 13 -2 31 4 40 14 11 12 13 12 5 0 -9 -13 -8 -13 10 0 11 8 28 23 38 35
10 11 16 14 12 8 -3 -7 -1 -13 4 -13 6 0 11 5 11 11 0 5 6 7 13 3 8 -5 7 -2
-2 9 -12 15 -12 17 3 11 10 -4 25 1 36 11 10 9 24 14 30 10 6 -3 10 -3 9 2 -3
19 2 33 12 33 5 0 7 -6 4 -12 -4 -7 0 -5 8 5 8 9 23 17 33 17 16 0 17 2 4 10
-12 8 -11 10 7 10 12 0 25 5 28 10 4 6 10 8 15 5 4 -3 7 3 6 13 0 10 5 16 15
14 9 -1 21 8 28 20 6 13 9 15 7 6 -3 -12 -1 -15 9 -11 8 3 12 10 8 16 -4 7 0
8 12 3 15 -5 16 -4 6 8 -11 13 -9 15 9 11 16 -3 20 0 16 11 -3 8 -2 13 3 10 4
-3 17 2 27 10 10 9 13 12 5 8 -9 -5 -12 -3 -7 5 4 6 12 9 17 5 5 -3 19 5 30
18 11 13 17 16 13 8 -6 -12 -5 -13 7 -2 12 11 12 14 -1 23 -13 9 -13 10 0 8
30 -3 41 1 34 13 -5 8 -2 9 10 5 10 -4 15 -3 11 3 -3 6 -1 10 5 10 6 0 8 5 4
12 -5 7 -2 9 8 5 11 -4 15 0 13 11 -1 9 2 20 7 23 5 3 10 19 11 35 1 16 7 32
12 36 6 5 5 8 -2 8 -9 0 -12 13 -10 40 2 22 0 40 -5 40 -4 0 -8 9 -8 20 0 11
-4 20 -9 20 -6 0 -8 9 -6 20 2 11 -1 19 -8 17 -7 -1 -11 8 -11 20 1 13 -3 20
-7 17 -5 -3 -7 -10 -4 -15 4 -5 2 -9 -3 -9 -15 0 -32 46 -21 57 6 6 2 19 -11
36 -12 15 -18 27 -15 27 4 0 2 7 -5 15 -7 8 -16 12 -21 10 -4 -3 -6 4 -4 16 3
16 0 19 -12 15 -11 -4 -14 -2 -9 9 3 8 1 15 -4 15 -5 0 -6 7 -3 17 5 12 3 14
-7 8 -10 -6 -12 -4 -6 10 5 15 4 16 -8 6 -12 -10 -13 -9 -9 8 3 13 1 21 -6 21
-7 0 -9 5 -6 10 3 6 1 10 -5 10 -6 0 -8 5 -5 10 3 6 1 10 -4 10 -6 0 -11 9
-11 21 0 11 -4 17 -10 14 -5 -3 -10 1 -10 10 0 10 -5 13 -12 9 -9 -5 -9 -2 1
9 12 15 11 17 -3 17 -10 0 -14 5 -11 10 3 6 1 10 -5 10 -6 0 -9 4 -6 9 3 5 -3
20 -14 33 -11 14 -16 28 -13 32 3 3 1 6 -5 6 -7 0 -12 7 -12 15 0 8 -5 15 -11
15 -6 0 -9 6 -6 14 3 8 -1 22 -9 33 -9 10 -13 12 -9 6 9 -19 2 -16 -19 9 -15
18 -16 20 -2 15 9 -4 16 -2 16 3 0 6 -7 10 -16 10 -8 0 -12 5 -9 10 5 9 -6 14
-26 12 -3 -1 -6 6 -6 13 0 12 3 12 16 3 14 -11 14 -11 0 7 -9 11 -19 28 -22
38 -4 9 -11 17 -16 17 -6 0 -7 7 -4 17 4 11 3 14 -5 9 -11 -6 -17 5 -13 27 0
4 -4 7 -11 7 -6 0 -8 3 -5 7 4 3 2 12 -4 20 -9 10 -8 13 0 13 7 0 9 5 6 10 -4
6 -10 8 -15 5 -9 -6 -7 10 4 37 4 9 5 22 1 27 -3 7 0 8 9 5 9 -3 16 -1 16 6 0
6 5 8 10 5 6 -4 9 -1 8 7 -2 7 3 12 10 10 6 -1 11 4 10 10 -2 7 3 12 10 10 6
-1 12 5 12 14 0 9 6 14 13 12 6 -3 21 4 32 15 11 11 14 17 8 13 -25 -14 -13 0
20 24 17 13 28 17 22 9 -8 -12 -7 -11 5 1 8 8 26 21 40 28 l25 12 -25 -6 -25
-6 23 17 c12 9 27 13 34 9 7 -5 8 -3 3 6 -6 10 -4 12 10 6 16 -6 16 -4 4 11
-8 10 -9 14 -2 10 15 -9 54 23 46 36 -3 6 -1 7 5 3 13 -8 59 19 55 32 -2 4 2
7 9 7 6 0 13 6 16 14 3 9 0 11 -8 6 -9 -5 -11 -4 -6 4 6 9 11 9 21 1 9 -8 15
-8 20 0 3 5 3 10 -2 10 -4 1 3 7 17 14 14 8 28 12 32 10 4 -3 5 3 1 12 -4 12
-3 15 5 10 8 -4 16 2 21 16 6 13 10 16 11 8 0 -13 2 -13 9 0 6 8 8 17 5 21 -2
4 1 11 7 15 7 4 9 3 5 -4 -4 -6 1 -10 13 -9 11 0 17 5 15 9 -3 5 2 15 10 24
12 12 16 12 17 2 0 -7 4 -3 9 10 5 12 14 23 20 23 20 3 25 5 45 16 11 7 15 13
10 13 -6 0 -17 -6 -25 -12 -12 -11 -12 -10 -2 3 6 9 9 18 6 22 -3 3 3 3 15 0
13 -3 21 -1 21 8 0 7 3 10 6 6 8 -8 34 18 34 35 0 10 3 9 10 -2 8 -13 10 -12
10 3 0 10 4 16 9 12 12 -7 33 29 23 41 -4 5 1 2 11 -5 12 -10 17 -10 17 -2 0
7 5 9 13 5 8 -5 7 -2 -2 9 -12 15 -12 17 4 11 14 -6 16 -4 10 7 -8 12 -6 12 8
0 15 -12 17 -12 11 4 -5 12 -4 16 4 11 6 -3 16 3 22 14 6 11 15 20 21 20 16 0
59 36 52 44 -6 5 11 10 29 7 4 0 16 11 26 24 11 14 25 25 31 25 6 0 11 5 11
11 0 5 -5 7 -12 3 -7 -4 -8 -3 -4 4 4 6 14 8 23 5 12 -5 15 -2 10 10 -4 11 -2
14 8 11 7 -3 30 11 50 30 20 20 43 36 51 36 8 0 14 4 14 9 0 5 16 18 35 30 19
11 35 25 35 31 0 6 -4 8 -10 5 -5 -3 -10 -1 -10 5 0 7 6 10 13 7 6 -2 21 3 32
12 19 15 19 15 5 -4 -8 -10 4 -4 28 15 23 18 42 39 42 45 0 7 14 22 30 35 33
25 37 45 16 85 -9 17 -16 22 -19 13 -4 -9 -6 -9 -6 -1 -1 7 -8 10 -18 6 -12
-5 -14 -3 -8 8 7 11 6 12 -6 2 -12 -10 -18 -10 -29 0 -10 9 -11 9 -6 0 5 -9 0
-13 -14 -13 -12 0 -18 5 -15 10 3 6 4 10 1 10 -3 0 -10 -8 -15 -17z m74 -142
c3 -6 -5 -15 -17 -21 -21 -10 -21 -10 -6 3 10 8 15 17 11 20 -3 4 -4 7 0 7 3
0 8 -4 12 -9z m-105 -95 c0 -2 -7 -7 -16 -10 -8 -3 -12 -2 -9 4 6 10 25 14 25
6z m-236 -175 c3 -5 -1 -14 -8 -20 -10 -9 -16 -9 -21 -1 -4 6 -1 9 7 8 7 -2
12 3 11 10 -3 14 3 16 11 3z m-64 -55 c0 -2 -8 -10 -17 -17 -16 -13 -17 -12
-4 4 13 16 21 21 21 13z m-600 -1528 c0 -4 -13 -9 -30 -9 -54 -2 -65 -4 -77
-12 -8 -5 -13 -4 -13 2 0 10 14 15 33 12 4 0 7 3 7 7 0 4 18 8 40 8 22 0 40
-3 40 -8z m-130 -19 c0 -6 -10 -10 -22 -9 -13 1 -25 1 -28 0 -3 -1 -12 -3 -20
-5 -8 -2 -33 -9 -55 -15 -69 -19 -119 -31 -137 -33 -10 -1 -18 -5 -18 -9 0 -4
-16 -10 -35 -14 -19 -3 -35 -11 -35 -16 0 -6 -7 -7 -15 -4 -9 3 -18 -1 -22 -9
-3 -10 -12 -13 -24 -10 -11 4 -19 3 -19 -2 0 -4 -20 -19 -45 -32 -25 -13 -45
-28 -45 -33 0 -6 -6 -8 -14 -5 -8 3 -17 -1 -20 -10 -4 -9 -9 -13 -12 -10 -4 3
-18 -5 -32 -18 -14 -13 -29 -22 -33 -19 -5 2 -13 -5 -19 -16 -6 -11 -14 -18
-19 -16 -4 3 -13 -4 -21 -14 -8 -10 -17 -17 -22 -14 -4 3 -18 -6 -30 -19 -13
-13 -29 -22 -35 -20 -8 3 -13 -4 -13 -17 0 -12 -5 -18 -10 -15 -6 3 -22 -8
-36 -24 -26 -32 -44 -33 -44 -3 0 12 3 13 8 5 5 -8 13 -9 22 -3 8 6 11 10 5
10 -5 0 5 14 23 30 18 17 37 30 42 30 5 0 20 11 34 25 14 14 28 25 31 25 22
-1 25 1 19 12 -4 7 -3 8 4 4 7 -4 12 -2 12 3 0 6 5 11 10 11 6 0 20 9 32 20
12 11 28 20 35 20 7 0 13 5 13 10 0 6 7 10 15 10 8 0 15 5 15 11 0 6 6 9 14 6
8 -3 17 1 20 10 4 9 9 13 12 10 4 -3 12 -1 20 6 32 29 44 37 44 32 0 -3 10 1
23 10 13 8 27 12 30 8 4 -3 7 -2 7 3 0 8 59 36 80 39 3 0 10 4 17 8 6 4 23 8
37 9 14 1 26 6 26 10 0 4 14 8 30 8 17 0 30 4 30 8 0 5 13 9 30 10 16 0 37 5
47 11 24 14 93 14 93 0z m184 -21 c-3 -4 -10 -8 -16 -8 -6 0 -8 3 -5 7 4 3 1
13 -6 21 -11 13 -9 14 10 2 12 -8 19 -18 17 -22z m-4126 -268 c-7 -11 -17 -20
-22 -20 -5 0 -1 9 9 20 10 11 20 20 22 20 2 0 -2 -9 -9 -20z m3060 -162 c-2
-5 -8 -9 -13 -9 -5 0 -11 4 -13 9 -1 5 4 9 13 9 9 0 14 -4 13 -9z m-49 -33
c-11 -6 -17 -14 -14 -17 4 -3 -11 -18 -32 -32 -20 -14 -33 -26 -28 -26 6 0 -3
-11 -19 -25 -16 -13 -33 -22 -37 -19 -5 3 -9 -2 -9 -11 0 -9 -4 -13 -10 -10
-5 3 -10 2 -10 -3 0 -12 -50 -45 -68 -45 -7 0 -11 -6 -8 -13 3 -9 -3 -11 -20
-8 -14 3 -23 1 -20 -4 8 -13 -34 -29 -72 -28 -17 1 -32 -1 -32 -4 0 -3 -20 -4
-45 -3 -25 0 -51 -4 -58 -10 -20 -20 -61 -14 -65 8 -2 12 0 16 5 10 7 -10 21
-11 41 -5 4 1 10 2 15 1 4 0 7 4 7 10 0 7 21 10 60 7 33 -1 60 1 60 5 0 5 4 6
9 2 12 -7 61 15 61 27 0 5 4 7 8 4 14 -8 104 44 135 77 16 18 27 25 27 16 0
-12 2 -12 9 1 6 8 7 18 5 22 -3 5 -1 7 4 6 10 -3 55 35 87 75 13 16 22 20 27
13 4 -6 -2 -16 -13 -21z m-2033 -68 c1 -7 -7 -13 -16 -13 -15 0 -16 4 -8 19
10 19 20 16 24 -6z m141 -81 c0 -10 -19 -13 -46 -7 -2 1 2 7 9 15 13 17 37 12
37 -8z m-36 -33 c13 -16 12 -17 -3 -4 -17 13 -22 21 -14 21 2 0 10 -8 17 -17z
m-512 -26 c8 -10 7 -14 -2 -14 -8 0 -14 6 -14 14 0 7 1 13 2 13 2 0 8 -6 14
-13z m531 -3 c0 -8 -19 -13 -24 -6 -3 5 1 9 9 9 8 0 15 -2 15 -3z m120 -4 c0
-5 -5 -10 -11 -10 -5 0 -7 5 -4 10 3 6 8 10 11 10 2 0 4 -4 4 -10z m-630 -45
c0 -2 -6 -7 -12 -11 -7 -4 -10 -4 -6 1 4 4 0 14 -10 22 -15 13 -15 13 6 3 12
-6 22 -13 22 -15z m1858 -2 c-2 -12 -12 -18 -28 -17 -14 1 -28 -3 -32 -10 -5
-8 -8 -7 -8 3 0 11 -3 11 -15 1 -8 -6 -19 -9 -25 -5 -5 3 -10 1 -10 -4 0 -6
-4 -11 -10 -11 -5 0 -10 8 -10 17 0 9 3 13 7 10 3 -4 11 -3 17 2 6 5 26 11 44
14 19 3 36 8 40 11 12 13 33 5 30 -11z m-1318 -17 c0 -3 -4 -8 -10 -11 -5 -3
-10 -1 -10 4 0 6 5 11 10 11 6 0 10 -2 10 -4z m-543 -20 c-3 -7 -1 -18 3 -22
5 -5 5 -15 -1 -24 -8 -12 -9 -11 -7 5 2 13 -2 19 -11 17 -11 -2 -12 0 -3 11 7
8 9 17 5 20 -3 4 -1 7 6 7 7 0 11 -6 8 -14z m337 -2 c3 -8 2 -12 -4 -9 -6 3
-10 10 -10 16 0 14 7 11 14 -7z m1376 9 c0 -17 -18 -35 -28 -29 -6 3 -18 -2
-28 -11 -10 -10 -19 -16 -21 -14 -2 2 -14 0 -26 -4 -12 -4 -29 -9 -37 -10 -8
-2 -16 -9 -18 -15 -2 -5 -7 -8 -12 -5 -5 3 -15 -2 -23 -10 -12 -11 -17 -12
-20 -2 -3 8 -8 5 -13 -8 -5 -11 -13 -20 -19 -21 -25 -1 -65 -17 -65 -26 0 -5
-4 -6 -10 -3 -5 3 -10 1 -10 -4 0 -6 -9 -11 -21 -11 -11 0 -17 -4 -14 -10 3
-5 0 -10 -9 -10 -8 0 -17 -6 -19 -12 -3 -7 -6 -3 -6 10 -1 13 5 22 14 22 8 0
15 5 15 10 0 6 3 9 8 8 9 -2 65 24 73 35 3 4 12 7 20 5 8 -2 13 3 11 10 -1 8
2 11 9 6 6 -3 14 -1 18 5 4 6 17 13 28 16 12 2 32 10 45 19 22 15 27 16 49 16
5 0 7 5 3 11 -4 7 0 9 14 5 12 -4 26 -1 36 9 9 9 16 13 16 9 0 -5 5 -3 12 4
13 13 28 16 28 5z m-1713 -88 c0 -8 -4 -12 -9 -9 -5 3 -6 10 -3 15 9 13 12 11
12 -6z m-122 -47 c5 4 5 1 1 -6 -5 -9 -12 -9 -27 -2 -10 6 -19 13 -19 16 0 2
8 0 19 -5 10 -6 22 -7 26 -3z m-1 -44 c3 -8 2 -12 -4 -9 -6 3 -10 10 -10 16 0
14 7 11 14 -7z m1416 -39 c-7 -8 -17 -15 -22 -15 -5 0 -23 -14 -40 -30 -16
-17 -34 -28 -39 -24 -5 3 -9 1 -9 -4 0 -11 -81 -64 -88 -57 -8 8 39 45 49 39
5 -3 9 2 9 11 0 9 5 13 10 10 6 -3 13 1 16 9 3 9 10 13 15 10 5 -3 9 0 9 5 0
6 5 11 11 11 7 0 22 11 35 26 13 14 24 22 24 18 0 -5 5 -3 12 4 16 16 24 6 8
-13z m-955 -25 c-3 -5 -1 -10 6 -10 7 0 10 -3 6 -6 -9 -9 -28 6 -22 17 4 5 8
9 11 9 3 0 2 -4 -1 -10z m275 6 c0 -3 -4 -8 -10 -11 -5 -3 -10 -1 -10 4 0 6 5
11 10 11 6 0 10 -2 10 -4z m-615 -34 c-16 -11 -17 -33 -3 -50 7 -9 9 -13 3
-10 -14 8 -32 -14 -29 -35 1 -9 -1 -17 -5 -17 -5 0 -8 -12 -7 -27 1 -15 -5
-28 -14 -31 -12 -4 -13 -2 -3 9 10 9 10 16 1 27 -9 10 -9 15 1 21 10 6 7 14
-11 31 l-23 22 24 -12 c21 -11 23 -10 18 4 -3 8 -1 18 5 22 7 4 8 3 4 -4 -5
-8 -1 -10 10 -5 14 5 13 8 -6 18 -19 10 -20 13 -6 18 10 4 14 12 10 18 -4 7
-3 9 4 5 6 -3 14 -1 17 5 4 5 10 8 13 4 4 -3 2 -9 -3 -13z m-135 -12 c0 -5 -5
-10 -11 -10 -5 0 -7 5 -4 10 3 6 8 10 11 10 2 0 4 -4 4 -10z m723 -83 c-3 -5
-10 -2 -15 7 -5 9 -14 13 -20 10 -7 -4 -8 -2 -4 4 5 9 12 9 26 0 10 -7 16 -16
13 -21z m507 2 c0 -5 -6 -9 -14 -9 -8 0 -22 -10 -30 -22 -9 -12 -16 -18 -16
-12 0 18 41 65 51 59 5 -4 9 -10 9 -16z m-1233 -39 c2 -11 -1 -20 -5 -20 -4 0
-8 11 -8 25 0 28 8 24 13 -5z m63 20 c0 -5 -5 -10 -11 -10 -5 0 -7 5 -4 10 3
6 8 10 11 10 2 0 4 -4 4 -10z m546 2 c-2 -4 -1 -14 5 -22 7 -12 9 -11 10 5 l0
20 9 -20 c5 -11 9 -15 9 -9 1 14 28 14 28 -1 0 -15 -60 -12 -65 3 -2 7 -8 10
-13 6 -5 -3 -9 -1 -9 5 0 5 6 12 13 14 18 8 19 8 13 -1z m545 -45 c-10 -9 -11
-8 -5 6 3 10 9 15 12 12 3 -3 0 -11 -7 -18z m-22 -9 c-2 -2 -20 -16 -39 -33
-19 -16 -28 -21 -20 -10 19 26 54 54 59 49 2 -2 2 -5 0 -6z m-79 -62 c0 -2 -8
-10 -17 -17 -16 -13 -17 -12 -4 4 13 16 21 21 21 13z m-514 -1422 c1 -9 0 -13
-4 -10 -3 4 -7 14 -8 22 -1 9 0 13 4 10 3 -4 7 -14 8 -22z"/>
<path d="M3306 11533 c-6 -14 -5 -15 5 -6 7 7 10 15 7 18 -3 3 -9 -2 -12 -12z"/>
<path d="M4282 11241 c5 -18 34 -23 47 -7 7 8 4 12 -10 13 -10 1 -19 -4 -19
-10 0 -7 -4 -6 -11 3 -8 12 -10 12 -7 1z"/>
<path d="M4385 11200 c-3 -6 1 -7 9 -4 18 7 21 14 7 14 -6 0 -13 -4 -16 -10z"/>
<path d="M2806 11133 c-6 -14 -5 -15 5 -6 7 7 10 15 7 18 -3 3 -9 -2 -12 -12z"/>
<path d="M11940 10774 l0 -337 -41 47 c-68 77 -148 107 -289 107 -147 0 -262
-46 -363 -145 -117 -115 -170 -263 -171 -471 0 -212 52 -349 174 -462 42 -39
139 -88 195 -98 185 -34 335 5 443 113 l52 53 0 -76 0 -75 185 0 185 0 0 840
0 840 -185 0 -185 0 0 -336z m-111 -482 c36 -22 69 -59 94 -107 20 -35 22 -55
21 -170 -1 -145 -12 -188 -65 -255 -48 -59 -116 -90 -192 -86 -79 4 -126 25
-170 76 -98 115 -91 382 15 501 65 73 213 94 297 41z"/>
<path d="M12760 11100 c-143 -26 -207 -173 -122 -279 92 -114 301 -96 368 31
32 62 9 160 -49 209 -41 34 -129 52 -197 39z"/>
<path d="M7968 11045 c-2 -1 -28 -5 -58 -8 -360 -38 -560 -256 -504 -549 17
-91 55 -158 126 -223 71 -66 145 -108 308 -175 268 -109 342 -187 287 -302
-38 -82 -192 -120 -377 -94 -103 14 -205 55 -297 117 -23 16 -43 29 -45 29 -2
0 -4 -79 -4 -174 l-1 -175 49 -21 c166 -71 511 -87 723 -34 143 37 258 118
312 221 44 83 57 150 50 254 -13 204 -139 335 -429 450 -108 42 -221 102 -258
135 -90 82 -71 183 45 235 122 55 336 37 504 -41 35 -17 65 -30 66 -30 2 0 3
74 4 164 l1 164 -78 20 c-42 11 -104 24 -137 27 -60 8 -281 15 -287 10z"/>
<path d="M3716 10982 c-3 -5 1 -9 9 -9 8 0 12 4 9 9 -3 4 -7 8 -9 8 -2 0 -6
-4 -9 -8z"/>
<path d="M9085 10869 c-77 -21 -157 -44 -177 -49 l-37 -11 -3 -122 -3 -122
-85 0 c-47 0 -89 -3 -95 -7 -10 -6 -12 -228 -2 -245 3 -5 46 -8 96 -7 l91 2 0
-288 c0 -306 6 -363 45 -445 38 -80 98 -127 200 -156 70 -19 264 -17 335 4
l55 16 0 131 c0 71 -1 130 -1 130 -1 0 -19 -6 -41 -14 -44 -16 -115 -15 -156
2 -19 8 -35 27 -49 58 -19 43 -20 66 -20 283 0 130 0 245 1 256 1 19 7 20 114
20 169 0 153 -14 152 125 0 65 -4 122 -8 127 -5 4 -65 8 -134 8 l-126 1 0 172
c0 94 -2 172 -6 171 -3 0 -69 -18 -146 -40z"/>
<path d="M3672 10865 c4 -4 3 -14 -4 -22 -8 -11 -7 -12 6 -7 19 7 21 20 4 30
-7 4 -10 4 -6 -1z"/>
<path d="M4440 10820 c18 -12 30 -13 30 -2 0 4 -10 9 -22 9 -18 2 -20 0 -8 -7z"/>
<path d="M4495 10801 c-3 -5 -2 -12 3 -15 5 -3 9 1 9 9 0 17 -3 19 -12 6z"/>
<path d="M3713 10789 c3 -9 1 -21 -4 -26 -6 -6 -4 -10 5 -10 14 0 14 33 0 46
-4 3 -5 -1 -1 -10z"/>
<path d="M3676 10782 c-3 -5 1 -9 9 -9 8 0 12 4 9 9 -3 4 -7 8 -9 8 -2 0 -6
-4 -9 -8z"/>
<path d="M4216 10685 c24 -39 24 -40 24 -28 0 6 -9 21 -21 34 l-20 24 17 -30z"/>
<path d="M6645 10593 c-183 -17 -342 -102 -442 -238 -67 -91 -104 -208 -108
-347 -8 -307 135 -514 405 -585 47 -12 106 -17 210 -17 155 0 263 17 365 56
l55 21 0 128 0 128 -67 -31 c-38 -17 -99 -36 -138 -43 -83 -15 -246 -12 -295
6 -90 32 -152 103 -166 189 l-6 37 373 1 c206 0 381 1 389 1 13 1 15 20 14
116 -2 198 -40 315 -136 420 -97 106 -189 143 -398 159 -14 1 -38 0 -55 -1z
m145 -258 c57 -30 100 -108 100 -184 l0 -37 -215 0 -215 0 0 22 c0 28 55 133
84 160 63 60 172 77 246 39z"/>
<path d="M13748 10589 c-248 -26 -445 -193 -504 -429 -17 -69 -23 -221 -11
-306 15 -109 67 -214 145 -292 110 -110 242 -155 452 -156 170 -1 237 9 358
51 l72 25 0 129 0 129 -48 -24 c-79 -40 -167 -59 -282 -59 -117 -1 -155 5
-210 33 -55 28 -96 73 -114 127 -30 88 -62 81 342 81 196 0 371 1 388 1 l30 1
-1 108 c-2 140 -11 191 -47 286 -25 65 -42 90 -98 147 -117 120 -273 168 -472
148z m157 -249 c67 -25 115 -108 115 -195 l0 -32 -215 0 c-212 0 -215 0 -215
21 1 27 35 102 65 142 36 47 111 81 171 78 27 -1 63 -7 79 -14z"/>
<path d="M9687 10555 c-9 -27 1 -776 11 -828 40 -205 165 -315 369 -322 149
-5 241 30 339 130 l64 65 0 -85 0 -85 183 0 182 0 0 568 0 567 -182 0 -183 0
0 -346 c0 -301 -2 -354 -17 -400 -23 -71 -77 -123 -144 -139 -103 -25 -186 10
-229 95 l-25 50 -2 355 c-1 195 -2 362 -2 370 -1 13 -27 15 -181 15 -113 0
-181 -3 -183 -10z"/>
<path d="M12629 10565 c-1 0 -2 -255 -3 -567 l-1 -568 182 0 183 0 0 568 0
568 -180 0 c-99 -1 -181 -1 -181 -1z"/>
<path d="M14523 10557 c-3 -5 -5 -64 -5 -130 l-1 -122 266 1 266 0 -22 -30
c-12 -17 -144 -181 -294 -365 l-273 -334 0 -73 0 -74 534 0 535 0 -1 130 0
130 -283 2 -283 3 62 76 c33 42 142 177 241 299 281 348 257 312 257 394 0 39
0 78 -1 86 -1 13 -63 15 -497 15 -273 0 -498 -4 -501 -8z"/>
<path d="M9570 8925 l0 -175 35 0 c38 0 40 7 35 95 -2 44 16 85 38 85 33 0 42
-21 42 -102 l0 -78 35 0 35 0 0 84 c0 105 -12 143 -49 151 -32 7 -81 -3 -81
-16 0 -5 -5 -9 -11 -9 -6 0 -10 22 -9 58 2 84 3 82 -35 82 l-35 0 0 -175z"/>
<path d="M10160 8925 l0 -175 35 0 35 0 0 71 c0 77 11 109 38 109 33 0 42 -22
42 -102 l0 -78 35 0 35 0 0 94 c0 80 -3 97 -22 121 -18 24 -26 27 -60 22 -22
-3 -46 -14 -53 -24 -13 -16 -14 -9 -15 60 l0 77 -35 0 -35 0 0 -175z"/>
<path d="M10875 9089 c-31 -17 -45 -40 -45 -71 0 -21 -5 -28 -20 -28 -15 0
-20 -7 -20 -25 0 -18 5 -25 20 -25 19 0 20 -7 20 -95 l0 -95 35 0 35 0 0 95
c0 94 0 95 24 95 13 0 26 6 28 13 9 22 -3 37 -29 37 -20 0 -24 4 -21 23 2 17
9 22 31 22 25 -1 28 2 25 30 -3 25 -8 30 -33 32 -16 2 -39 -2 -50 -8z"/>
<path d="M14020 8925 l0 -175 35 0 35 0 0 71 c0 77 11 109 38 109 33 0 42 -22
42 -102 l0 -78 34 0 c33 0 35 2 38 38 2 20 0 65 -3 100 -8 81 -29 106 -82 99
-21 -3 -45 -14 -52 -24 -13 -16 -14 -9 -15 60 l0 77 -35 0 -35 0 0 -175z"/>
<path d="M7563 9029 l-22 -50 31 3 c27 3 33 9 44 48 8 25 14 46 14 48 0 1 -10
2 -23 2 -18 0 -28 -11 -44 -51z"/>
<path d="M7667 9053 c-8 -16 -18 -38 -21 -50 -7 -20 -4 -23 22 -23 30 0 31 2
48 83 6 29 -34 21 -49 -10z"/>
<path d="M7753 9053 c10 -56 18 -89 37 -153 23 -81 34 -133 32 -143 -1 -4 19
-7 45 -5 l47 3 30 114 30 113 28 -108 c15 -60 28 -112 28 -116 0 -5 19 -8 43
-8 l42 0 41 165 41 165 -36 0 -37 0 -24 -121 -24 -121 -12 44 c-6 24 -19 78
-28 121 l-18 77 -39 0 c-38 0 -39 -1 -54 -55 -9 -30 -18 -64 -21 -77 -2 -13
-10 -43 -17 -67 l-13 -43 -25 118 -24 119 -39 3 c-37 3 -38 3 -33 -25z"/>
<path d="M12276 8993 c13 -48 26 -97 29 -108 2 -11 10 -45 17 -75 l13 -55 45
0 c50 0 40 -18 86 158 l17 68 28 -108 c16 -59 28 -112 29 -116 0 -5 19 -7 42
-5 l43 3 32 125 c18 69 37 142 42 163 l9 37 -37 0 -37 0 -23 -120 c-13 -67
-25 -119 -27 -118 -1 2 -5 15 -8 28 -3 14 -7 34 -10 45 -2 11 -12 53 -21 93
l-17 73 -41 -3 c-23 -2 -41 -7 -40 -13 0 -5 -3 -17 -8 -26 -4 -9 -10 -27 -13
-40 -3 -13 -10 -42 -16 -64 -7 -22 -15 -56 -19 -75 -6 -30 -10 -19 -31 90
l-25 125 -41 3 -42 3 24 -88z"/>
<path d="M14431 9043 c-15 -53 -14 -63 9 -63 13 0 25 14 40 46 11 26 20 48 20
50 0 2 -13 4 -30 4 -25 0 -30 -5 -39 -37z"/>
<path d="M14521 9036 c-14 -57 -14 -56 9 -56 13 0 27 14 40 40 27 52 25 60 -9
60 -26 0 -30 -5 -40 -44z"/>
<path d="M8660 9047 c-27 -10 -34 -17 -33 -35 2 -16 -3 -22 -17 -22 -15 0 -20
-7 -20 -25 0 -18 5 -25 19 -25 16 0 18 -7 16 -52 -3 -97 19 -138 77 -138 30 0
48 17 48 45 0 16 -6 21 -22 21 -25 -1 -36 34 -30 92 4 26 9 32 28 32 19 0 24
5 24 25 0 20 -5 25 -25 25 -25 0 -29 7 -25 48 1 12 0 22 -2 21 -2 0 -19 -6
-38 -12z"/>
<path d="M10018 9048 c-21 -7 -26 -14 -22 -34 3 -19 0 -24 -16 -24 -15 0 -20
-7 -20 -25 0 -17 5 -25 18 -25 14 0 17 -9 17 -57 -1 -97 20 -133 77 -133 30 0
48 17 48 45 0 16 -6 21 -22 21 -20 -1 -24 5 -28 44 -7 63 -2 80 26 80 19 0 24
5 24 25 0 20 -5 25 -25 25 -22 0 -25 4 -25 33 0 36 -8 39 -52 25z"/>
<path d="M11304 9047 c-24 -9 -30 -17 -28 -34 3 -18 -1 -23 -16 -23 -15 0 -20
-7 -20 -25 0 -18 5 -25 19 -25 16 0 18 -8 16 -61 -2 -82 18 -122 63 -127 18
-2 40 2 48 9 22 18 17 47 -8 51 -26 4 -35 32 -30 89 4 33 8 39 28 39 19 0 24
5 24 25 0 20 -5 25 -25 25 -25 0 -30 10 -26 53 3 20 -2 20 -45 4z"/>
<path d="M13164 9049 c-26 -7 -31 -13 -29 -34 3 -19 -1 -25 -16 -25 -25 0 -27
-47 -2 -52 14 -2 17 -17 19 -78 2 -63 5 -77 24 -92 42 -34 100 -18 100 27 0
16 -6 21 -22 21 -19 -1 -24 6 -28 34 -9 61 -1 90 26 90 19 0 24 5 24 25 0 20
-5 25 -25 25 -22 0 -25 4 -25 35 0 38 0 38 -46 24z"/>
<path d="M8291 8977 c-34 -17 -60 -57 -62 -92 -3 -60 2 -77 31 -103 31 -29 70
-37 131 -27 31 5 35 10 35 35 0 16 -4 26 -9 23 -25 -15 -85 -14 -101 2 -28 29
-18 35 58 35 l73 0 -2 33 c-4 54 -21 84 -56 96 -41 14 -68 14 -98 -2z m77 -49
c24 -24 13 -38 -28 -38 -26 0 -40 5 -40 13 0 18 21 37 40 37 9 0 21 -5 28 -12z"/>
<path d="M8841 8977 c-40 -20 -65 -63 -64 -107 4 -82 59 -128 141 -117 57 7
69 15 91 59 33 68 9 145 -53 168 -39 13 -86 13 -115 -3z m98 -61 c17 -20 17
-72 1 -91 -14 -17 -56 -17 -77 -2 -18 13 -16 73 3 91 19 20 58 21 73 2z"/>
<path d="M9067 8983 c-9 -19 1 -176 13 -198 19 -36 73 -44 111 -16 16 12 29
18 28 14 -4 -25 4 -33 36 -33 l35 0 0 120 0 120 -35 0 c-19 0 -35 -3 -36 -7 0
-5 -1 -41 -2 -81 -2 -71 -12 -92 -42 -92 -31 0 -38 20 -38 99 l1 81 -33 0
c-19 0 -36 -3 -38 -7z"/>
<path d="M9393 8970 c-39 -23 -53 -48 -55 -97 -3 -76 48 -125 124 -122 53 3
58 7 63 45 2 24 1 25 -37 19 -30 -5 -44 -3 -59 11 -47 42 -4 113 61 100 17 -3
31 -1 31 4 1 6 2 16 3 23 6 40 -76 51 -131 17z"/>
<path d="M10465 8968 c-31 -24 -56 -76 -51 -104 18 -87 44 -111 121 -111 61
-1 84 10 82 37 -1 18 -6 20 -43 14 -46 -7 -84 8 -84 31 0 12 16 15 74 15 l74
0 -2 33 c-7 93 -101 140 -171 85z m93 -40 c24 -24 13 -38 -28 -38 -26 0 -40 5
-40 13 0 18 21 37 40 37 9 0 21 -5 28 -12z"/>
<path d="M10987 8983 c-9 -18 1 -176 13 -198 19 -36 73 -44 111 -16 16 12 29
18 28 14 -4 -25 4 -33 36 -33 l35 0 0 121 0 120 -36 -3 -37 -3 -1 -78 c-1 -76
-10 -97 -41 -97 -29 0 -37 19 -37 99 l0 81 -34 0 c-18 0 -35 -3 -37 -7z"/>
<path d="M11437 8983 c-9 -20 0 -174 12 -197 23 -42 97 -46 129 -7 12 14 13
13 9 -6 -5 -21 -1 -23 34 -23 l39 0 0 120 0 120 -35 0 c-29 0 -35 -4 -36 -22
0 -13 -1 -49 -2 -81 -2 -55 -13 -77 -42 -77 -28 0 -35 19 -36 98 l-1 82 -33 0
c-19 0 -36 -3 -38 -7z"/>
<path d="M11720 8870 l0 -120 35 0 35 0 0 73 c0 81 19 115 60 104 17 -4 20 0
20 29 0 27 -4 34 -20 34 -11 0 -29 -9 -40 -20 l-20 -20 0 20 c0 16 -7 20 -35
20 l-35 0 0 -120z"/>
<path d="M11940 8963 c-38 -34 -52 -89 -37 -140 15 -48 58 -74 117 -72 59 3
75 12 78 42 1 24 0 24 -27 14 -36 -13 -95 2 -99 26 -3 15 6 17 71 17 l75 0 -2
33 c-3 36 -22 76 -44 93 -8 6 -34 11 -57 13 -36 1 -50 -3 -75 -26z m98 -35
c24 -24 13 -38 -28 -38 -43 0 -55 20 -22 39 23 14 36 13 50 -1z"/>
<path d="M12791 8977 c-42 -21 -65 -63 -64 -112 3 -81 56 -122 145 -112 41 5
58 19 58 49 0 15 -4 16 -26 8 -37 -14 -70 -12 -88 6 -28 28 -17 34 58 34 l74
0 -2 33 c-6 86 -82 132 -155 94z m77 -49 c24 -24 13 -38 -28 -38 -43 0 -49 9
-24 34 19 19 36 20 52 4z"/>
<path d="M13324 8956 c-33 -33 -38 -50 -35 -109 2 -43 19 -67 58 -84 36 -15
95 -16 124 -2 9 5 17 19 17 33 0 22 -3 23 -28 15 -46 -17 -100 -2 -100 27 0
11 16 14 74 14 l74 0 -3 28 c-4 56 -17 81 -50 96 -54 26 -92 21 -131 -18z
m104 -28 c24 -24 13 -38 -28 -38 -43 0 -45 2 -30 31 12 21 40 25 58 7z"/>
<path d="M13583 8983 c-13 -2 -24 -9 -24 -14 -5 -33 -2 -44 11 -40 8 3 33 5
55 5 30 1 40 -3 43 -16 3 -13 -3 -18 -20 -18 -13 0 -40 -5 -60 -10 -32 -9 -39
-17 -49 -51 -11 -36 -10 -41 12 -65 20 -22 30 -25 64 -21 22 3 41 11 43 16 2
6 8 11 13 11 4 0 6 -7 3 -15 -5 -12 2 -15 30 -15 34 0 36 2 37 35 0 19 1 50 1
68 1 17 -2 49 -6 69 -10 57 -64 78 -153 61z m94 -138 c0 -24 -33 -48 -56 -40
-23 7 -29 40 -8 48 27 12 64 7 64 -8z"/>
<path d="M13841 8977 c-78 -39 -85 -167 -13 -209 31 -18 119 -21 129 -4 4 6 8
21 9 34 1 21 -2 23 -37 17 -51 -9 -79 10 -79 52 0 43 36 68 83 59 31 -6 34 -4
33 16 -1 13 -5 29 -9 36 -10 16 -85 15 -116 -1z"/>
<path d="M12152 8818 c-16 -16 -15 -43 2 -58 38 -30 94 21 60 55 -18 18 -46
19 -62 3z"/>
<path d="M14292 8818 c-30 -30 0 -75 43 -64 19 5 25 13 25 35 0 38 -41 56 -68
29z"/>
</g>
</svg>
